<svg xmlns="http://www.w3.org/2000/svg" viewBox="0 0 64 64">
  <rect width="64" height="64" rx="14" fill="#0e1512"/>
  <rect x="3" y="3" width="58" height="58" rx="11" fill="none" stroke="#4ade80" stroke-width="3"/>
  <!-- skull -->
  <g fill="#4ade80">
    <path d="M32 10c-10.5 0-18 7.6-18 17.5 0 5.9 2.9 10.6 7 13.5v6a3 3 0 0 0 3 3h2v-5h3v5h6v-5h3v5h2a3 3 0 0 0 3-3v-6c4.1-2.9 7-7.6 7-13.5C50 17.6 42.5 10 32 10z"/>
  </g>
  <!-- eyes + nose -->
  <circle cx="24.5" cy="28" r="4.6" fill="#0e1512"/>
  <circle cx="39.5" cy="28" r="4.6" fill="#0e1512"/>
  <path d="M32 34l-3.2 6h6.4z" fill="#0e1512"/>
</svg>
